<svg width="767" height="635" viewBox="0 0 767 635" fill="none" xmlns="http://www.w3.org/2000/svg">
<g clip-path="url(#clip0_35_762)">
<path d="M383.504 635.008C595.307 635.008 767.008 625.254 767.008 613.221C767.008 601.189 595.307 591.435 383.504 591.435C171.7 591.435 0 601.189 0 613.221C0 625.254 171.7 635.008 383.504 635.008Z" fill="#CCCCCC"/>
<path d="M338.564 119.17C340.861 119.579 342.97 120.01 344.912 120.479L344.352 113.597C342.509 115.586 340.574 117.484 338.564 119.17Z" fill="#CC9999"/>
<path d="M303.463 108.092L303.259 117.076C304.815 116.811 306.576 116.607 308.571 116.493C306.848 114.194 305.148 111.404 303.463 108.084V108.092Z" fill="#CC9999"/>
<path d="M694.062 167.378C694.115 167.696 694.176 168.014 694.229 168.339C694.962 172.611 695.597 177.118 696.088 181.905C697.146 179.062 698 176.135 698.642 173.171C700.894 162.864 701.801 152.186 702.05 141.539C701.226 140.79 700.395 140.079 699.549 139.421C698.491 140.11 697.433 140.79 696.39 141.456C696.163 150.152 695.491 158.841 694.062 167.371V167.378Z" fill="white"/>
<path d="M696.42 234.87C696.383 236.662 696.352 238.462 696.345 240.254C710.771 236.926 720.118 225.939 726.489 213.598C726.156 212.304 725.808 211.019 725.453 209.764C725.038 208.304 724.645 206.829 724.267 205.362C718.902 218.036 710.589 231.005 696.42 234.87Z" fill="white"/>
<path d="M697.637 270.502C697.803 272.264 697.977 274.026 698.173 275.788C707.687 276.279 717.36 275.092 726.262 272.12C726.927 270.086 727.524 267.991 728.045 265.836C718.607 269.693 708.012 271.167 697.637 270.509V270.502Z" fill="white"/>
<path d="M693.231 194.261C696.791 193.898 696.828 188.658 693.231 189.021C660.926 192.288 628.402 189.58 597.336 181.088C597.253 182.782 597.117 184.567 596.898 186.427C628.1 194.844 660.843 197.528 693.224 194.254L693.231 194.261Z" fill="white"/>
<path d="M632.475 222.173C619.636 221.069 606.601 219.904 594.034 217.174C594.223 218.218 594.306 219.269 594.253 220.297C594.216 221.122 594.148 221.848 594.057 222.506C606.631 225.122 619.636 226.302 632.468 227.406C654.05 229.259 676.221 230.597 696.836 223.95C696.836 223.92 696.836 223.889 696.836 223.859C696.942 221.991 697.025 220.169 697.093 218.354C676.607 225.712 653.959 224.01 632.468 222.165L632.475 222.173Z" fill="white"/>
<path d="M669.11 263.318C658.531 263.469 647.929 263.394 637.357 263.25C623.49 263.053 609.624 262.516 595.848 261.193C595.946 263.008 596.006 264.747 596.037 266.449C610.477 267.81 625.001 268.347 639.533 268.513C650.573 268.642 661.682 268.869 672.722 268.475C681.246 268.165 689.725 266.97 697.047 262.864C696.942 261.261 696.843 259.658 696.768 258.055C696.745 257.654 696.73 257.253 696.707 256.852C696.601 256.905 696.496 256.951 696.39 257.026C688.342 262.395 678.745 263.182 669.133 263.326L669.11 263.318Z" fill="white"/>
<path d="M67.5873 254.213C62.887 242.477 62.0709 229.5 64.9122 217.258C64.0281 217.59 63.1742 217.953 62.3505 218.346C59.8039 230.703 60.8542 243.747 65.6754 255.461C68.4261 262.146 72.3178 268.294 77.0936 273.648C77.2901 273.655 77.4866 273.663 77.6831 273.663C77.9098 273.663 78.1289 273.678 78.3556 273.686C78.6277 273.686 78.8997 273.686 79.1793 273.686C79.4135 273.686 79.6402 273.686 79.8745 273.686C79.9727 273.686 80.071 273.686 80.1692 273.678C74.8115 268.059 70.4891 261.45 67.5873 254.206V254.213Z" fill="white"/>
<path d="M88.0056 248.088C91.3759 256.444 96.6656 263.9 103.316 269.889C104.192 269.655 105.046 269.413 105.892 269.163C99.046 263.318 93.5749 255.884 90.1819 247.491C85.4968 235.906 84.9602 222.899 88.3456 210.936C87.4993 211.284 86.6529 211.586 85.799 211.836C82.7537 223.776 83.3582 236.571 87.998 248.088H88.0056Z" fill="white"/>
<path d="M110.033 199.26C109.776 199.411 109.52 199.555 109.255 199.706C108.991 199.857 108.741 200.009 108.477 200.152C108.242 200.288 107.993 200.417 107.751 200.545C106.996 222.196 112.452 243.838 123.303 262.554C123.983 262.237 124.656 261.927 125.321 261.609C114.386 242.855 108.983 220.955 110.026 199.252L110.033 199.26Z" fill="white"/>
<path d="M126.56 185.452C129.953 208.478 137.48 230.786 148.739 251.128C149.48 250.909 150.235 250.704 150.991 250.523C139.437 229.795 131.767 206.981 128.532 183.44C127.882 184.098 127.225 184.771 126.56 185.459V185.452Z" fill="white"/>
<path d="M288.387 274.109C288.931 274.222 289.483 274.343 290.027 274.449C290.223 274.487 290.412 274.532 290.601 274.578C298.778 250.841 303.501 225.946 304.566 200.848C303.826 200.303 303.085 199.774 302.352 199.252C301.407 224.714 296.707 249.979 288.387 274.109Z" fill="white"/>
<path d="M302.057 278.525C302.745 278.835 303.433 279.145 304.128 279.478C315.758 261.526 323.692 241.343 327.471 220.328C326.775 219.844 326.103 219.352 325.453 218.861C321.788 240.072 313.808 260.444 302.057 278.525Z" fill="white"/>
<path d="M322.211 288.159C322.355 288.22 322.506 288.288 322.649 288.348C323.209 288.59 323.775 288.832 324.357 289.067C337.362 272.324 345.509 252.058 347.836 231.058C347.111 230.748 346.385 230.438 345.66 230.121C343.461 251.151 335.352 271.477 322.211 288.159Z" fill="white"/>
<path d="M128.056 391.502C104.608 390.731 83.3054 390.708 83.2979 390.708C80.8797 451.015 79.1266 527.748 81.5523 597.144V614.809H146.079L105.961 597.144L128.049 391.502H128.056Z" fill="#336699"/>
<path d="M183.734 598.332V597.152L179.759 574.708C168.424 574.005 158.215 572.953 150.228 571.532C151.747 579.82 153.379 588.35 155.132 597.16H155.631L155.132 597.311V614.832H225.901H183.734V598.339V598.332Z" fill="#336699"/>
<path d="M138.794 499.73C143.57 466.117 150.213 425.524 155.752 392.826C147.621 392.281 138.757 391.88 130.112 391.578C130.339 412.948 132.039 448.891 138.802 499.73H138.794Z" fill="#336699"/>
<path d="M533.89 362.713L548.996 602.491L540.759 614.817H572.687C572.687 614.817 572.687 614.772 572.694 614.688C572.8 613.357 573.76 601.039 575.203 581.922V581.899C579.155 529.441 586.689 425.894 589.863 357.821C583.009 359.931 559.016 362.812 533.89 362.713Z" fill="#336699"/>
<path d="M510.585 594.452L526.107 362.585C499.545 361.798 473.671 357.526 471.374 355.832C471.396 362.116 471.442 368.672 471.517 375.486C472.038 425.554 473.981 489.121 479.527 553.413C481.114 571.812 482.996 590.27 485.225 608.487C485.482 610.597 485.746 612.707 486.011 614.809H529.719L511.636 603.035L510.593 594.445L510.585 594.452Z" fill="#336699"/>
<path d="M90.7942 271.871C91.0738 272.067 91.3534 272.256 91.633 272.453C92.6833 272.271 93.7111 272.082 94.7237 271.886C87.9226 267.477 81.8923 262.032 78.6127 254.523C75.3709 247.097 75.4994 238.711 75.7941 230.771C76.0208 224.759 76.5648 218.694 78.2953 212.955C78.0006 213.053 77.7059 213.151 77.4112 213.25C77.056 213.371 76.7009 213.484 76.3533 213.605C76.1417 213.673 75.9376 213.741 75.7261 213.809C74.8419 217.129 74.2903 220.532 73.9578 223.988C73.3306 230.589 73.051 237.433 73.7386 244.035C74.3658 250.047 76.1039 255.832 79.5573 260.838C82.5649 265.201 86.5019 268.785 90.779 271.871H90.7942Z" fill="#336699"/>
<path d="M137.019 255.869C126.167 236.216 117.22 214.936 119.646 192.484C119.563 192.56 119.472 192.636 119.389 192.704C119.162 192.9 118.943 193.097 118.709 193.293C118.527 193.445 118.331 193.596 118.134 193.755C117.9 193.944 117.673 194.133 117.432 194.314C117.356 194.367 117.28 194.428 117.205 194.481C115.558 216.562 124.331 237.456 135.001 256.845C135.681 256.512 136.354 256.179 137.019 255.862V255.869Z" fill="#336699"/>
<path d="M414.124 168.384C392.844 158.183 373.801 146.537 362.534 139.255C357.086 160.716 283.748 157.268 291.282 125.318C283.967 123.193 273.856 121.431 260.004 120.894C259.604 120.879 259.203 120.864 258.795 120.849C257.896 120.819 256.982 120.796 256.052 120.781C249.561 120.645 242.329 120.766 234.228 121.235C212.609 122.482 196.203 120.448 183.319 118.444C157.785 114.482 146.109 110.655 135.258 132.721C135.228 132.782 135.197 132.842 135.167 132.91L130.595 144.163C133.716 144.412 141.938 152.118 153.855 160.61C156.817 162.72 160.014 164.875 163.407 166.985C163.724 167.182 164.042 167.386 164.366 167.582C164.85 167.877 165.334 168.165 165.817 168.46C171.576 171.878 177.87 175.084 184.626 177.625C186.704 178.404 188.82 179.115 190.974 179.757C191.276 179.848 191.578 179.939 191.88 180.022C214.498 186.472 242.004 182.767 260.571 181.973C260.624 181.973 260.684 181.973 260.737 181.973C265.234 181.784 269.707 182.344 273.984 183.599C274.083 183.629 274.181 183.652 274.279 183.682C274.702 183.811 275.125 183.947 275.549 184.09C275.994 184.242 276.433 184.4 276.879 184.567C278.541 185.194 280.166 185.928 281.738 186.76C281.942 186.873 282.153 186.979 282.357 187.093C283.143 187.312 285.017 188.25 287.556 189.709C288.312 190.14 289.12 190.616 289.982 191.138C290.639 191.531 291.319 191.947 292.022 192.386C292.551 192.711 293.095 193.051 293.647 193.407C294.69 194.072 295.763 194.768 296.874 195.502C297.342 195.812 297.818 196.129 298.294 196.454C299.624 197.347 300.984 198.292 302.352 199.267C303.085 199.789 303.826 200.326 304.566 200.863C305.42 201.491 306.282 202.126 307.136 202.776C309.108 204.274 311.05 205.816 312.909 207.382C313.838 208.16 314.745 208.947 315.622 209.733C315.645 209.756 315.667 209.779 315.69 209.794C312.471 232.745 305.269 255.068 294.44 275.599C294.342 275.568 294.244 275.538 294.146 275.508C293.753 275.387 293.36 275.274 292.967 275.168C292.748 275.107 292.529 275.054 292.302 274.994C291.932 274.895 291.569 274.805 291.191 274.722C290.957 274.669 290.73 274.616 290.496 274.57C290.337 274.54 290.186 274.495 290.027 274.464C288.871 274.23 287.722 273.988 286.574 273.738C284.277 273.232 281.987 272.687 279.712 272.097C278.753 271.848 277.8 271.583 276.848 271.319C276.123 271.114 275.405 270.903 274.687 270.691C270.72 269.519 266.798 268.203 262.944 266.683L260.813 265.844C259.747 272.672 258.659 279.75 257.564 287.025C256.74 292.492 255.901 298.073 255.07 303.73C252.16 323.444 249.244 344.171 246.553 364.77C239.518 418.726 234.107 471.811 234.78 503.564C234.886 508.699 245.019 512.797 260.156 515.747C271.778 518.015 286.355 519.596 301.612 520.45C314.179 521.153 327.199 521.358 339.41 521.04C354.562 520.639 368.466 519.429 378.705 517.357C386.806 515.716 392.61 513.531 394.922 510.771C396.872 508.442 398.376 504.131 399.486 498.203C403.892 474.828 402.29 426.25 398.557 374.495C396.403 344.648 393.532 313.742 390.698 286.019C387.554 290.239 383.088 293.702 377.255 295.767C376.423 296.062 375.562 296.326 374.678 296.568C373.453 296.901 372.169 297.173 370.831 297.393C367.657 297.907 364.159 298.096 360.312 297.884C359.481 297.839 358.627 297.778 357.758 297.695C356.693 297.597 355.604 297.461 354.494 297.302C353.337 297.135 352.204 296.954 351.093 296.765C350.73 296.704 350.383 296.636 350.028 296.576C349.952 296.561 349.884 296.553 349.809 296.538C349.332 296.455 348.841 296.372 348.373 296.281C348.184 296.243 348.01 296.205 347.829 296.167C347.421 296.084 347.02 296.001 346.627 295.925C345.97 295.789 345.32 295.653 344.677 295.51C344.277 295.419 343.884 295.328 343.491 295.237C343.234 295.177 342.962 295.124 342.705 295.056C342.335 294.965 341.98 294.874 341.617 294.784C341.247 294.693 340.884 294.602 340.521 294.511C339.864 294.337 339.222 294.164 338.579 293.99C338.284 293.906 337.982 293.831 337.688 293.74C336.766 293.475 335.859 293.211 334.975 292.931C334.551 292.802 334.151 292.666 333.735 292.53C347.927 276.718 357.547 257.094 361.521 236.299C363.335 236.934 365.141 237.546 366.932 238.129C367.688 238.378 368.443 238.62 369.191 238.862C371.368 239.558 373.514 240.223 375.592 240.844C376.461 241.101 377.292 241.403 378.108 241.721C378.811 242.001 379.506 242.288 380.171 242.613C382.537 243.755 384.653 245.161 386.504 246.772C386.375 245.608 386.239 244.473 386.103 243.354C382.416 212.66 377.398 197.626 394.93 191.342C417.623 183.206 427.454 197.384 452.013 189.709C457.862 187.879 464.542 184.816 472.431 179.909C457.091 180.506 435.683 178.721 414.124 168.392V168.384ZM331.4 291.744C330.871 291.562 330.35 291.381 329.836 291.192C329.526 291.078 329.216 290.965 328.907 290.851C328.619 290.745 328.317 290.64 328.03 290.526C327.818 290.443 327.607 290.36 327.395 290.277C327.085 290.156 326.776 290.035 326.473 289.914C326.277 289.838 326.073 289.762 325.876 289.679C325.589 289.566 325.302 289.445 325.022 289.324C324.735 289.21 324.456 289.089 324.169 288.976C323.655 288.764 323.148 288.545 322.65 288.333C322.597 288.311 322.544 288.288 322.491 288.265C322.4 288.227 322.302 288.19 322.211 288.144C322.128 288.106 322.045 288.069 321.962 288.038C321.244 287.721 320.534 287.411 319.831 287.093C319.189 286.798 318.561 286.511 317.934 286.216C317.874 286.186 317.813 286.155 317.753 286.133C317.526 286.027 317.299 285.921 317.073 285.807C316.619 285.596 316.174 285.376 315.728 285.165C315.471 285.044 315.221 284.915 314.964 284.794C314.549 284.59 314.141 284.393 313.733 284.189C313.476 284.061 313.226 283.94 312.977 283.819C312.833 283.751 312.69 283.675 312.554 283.607C312.274 283.471 312.002 283.335 311.73 283.199C311.564 283.115 311.39 283.032 311.224 282.949C311.133 282.904 311.042 282.858 310.952 282.813C310.423 282.548 309.909 282.291 309.388 282.034C309.312 281.996 309.236 281.958 309.161 281.921C308.609 281.648 308.058 281.369 307.514 281.104C306.924 280.817 306.342 280.529 305.76 280.249C305.579 280.159 305.398 280.075 305.216 279.985C304.816 279.796 304.415 279.599 304.015 279.41C303.796 279.304 303.576 279.206 303.357 279.107C302.995 278.941 302.632 278.775 302.269 278.608C302.042 278.503 301.816 278.404 301.589 278.306C301.234 278.147 300.871 277.996 300.516 277.837C300.297 277.746 300.078 277.648 299.851 277.557C299.466 277.398 299.08 277.24 298.695 277.088C298.506 277.013 298.317 276.937 298.128 276.862C297.614 276.665 297.1 276.476 296.586 276.287C296.586 276.287 296.594 276.287 296.602 276.287C307.204 256.066 314.33 234.159 317.67 211.609C318.652 212.546 319.589 213.484 320.458 214.407C321.879 215.919 323.564 217.401 325.446 218.838C326.096 219.33 326.768 219.821 327.463 220.305C330.38 222.339 333.698 224.283 337.272 226.135C337.975 226.498 338.685 226.861 339.41 227.217C341.428 228.215 343.521 229.175 345.652 230.113C346.37 230.431 347.096 230.741 347.829 231.051C351.599 232.646 355.484 234.136 359.368 235.527C355.453 256.368 345.758 276.022 331.4 291.736V291.744Z" fill="#257CE6"/>
<path d="M364.907 262.002C361.869 274.631 354.803 285.573 347.39 296.069C347.541 296.099 347.685 296.13 347.828 296.16C348.01 296.198 348.191 296.236 348.373 296.273C348.841 296.364 349.332 296.447 349.808 296.53C357.153 286.08 364.06 275.153 367.075 262.607C368.957 254.803 369.418 246.84 369.184 238.862C368.436 238.62 367.68 238.378 366.924 238.129C367.204 246.152 366.788 254.168 364.907 262.002Z" fill="white"/>
<path d="M384.358 265.36C383.232 272.158 381.494 278.918 378.698 285.233C376.824 289.475 374.458 294.239 370.839 297.385C372.176 297.166 373.461 296.893 374.685 296.561C376.672 294.171 378.252 291.373 379.62 288.575C382.74 282.185 384.796 275.326 386.111 268.354C387.327 261.889 387.917 255.31 388.559 248.761C387.917 248.073 387.229 247.407 386.511 246.78C385.952 252.981 385.378 259.227 384.365 265.36H384.358Z" fill="white"/>
<path d="M622.659 92.9905C625.878 92.0906 629.52 91.3268 633.639 90.7143C629.528 89.4968 625.886 87.4853 622.878 84.6873L622.666 92.9905H622.659Z" fill="#CC9999"/>
<path d="M657.208 89.0431C658.35 89.028 659.506 89.0204 660.692 89.0204C660.692 89.0204 661.584 88.9523 663.057 89.0733V84.9369C661.312 86.5098 659.37 87.9088 657.208 89.0431Z" fill="#CC9999"/>
<path d="M560.648 115.714L560.331 113.733C559.281 114.338 558.223 114.89 557.157 115.389C558.412 115.435 559.575 115.533 560.648 115.714Z" fill="#663333"/>
<path d="M533.187 113.952C531.842 113.037 530.482 111.964 529.122 110.708L528.767 114.633C530.021 114.194 531.48 113.945 533.195 113.952H533.187Z" fill="#663333"/>
<path d="M589.855 357.821C590.497 357.624 591.004 357.435 591.329 357.254C594.48 355.522 594.45 349.366 593.278 342.561C591.903 343.135 590.437 343.521 588.933 343.657C562.81 346.047 493.839 350.342 469.212 340.307C468.57 346.364 468.487 353.616 471.343 355.817C471.343 355.817 471.358 355.824 471.366 355.832C473.663 357.526 499.537 361.791 526.099 362.585C527.301 362.623 528.502 362.653 529.704 362.676C531.094 362.698 532.492 362.713 533.882 362.713C559.009 362.812 582.994 359.931 589.855 357.821Z" fill="#D9D9D9"/>
<path d="M590.43 227.867C590.43 227.867 593.211 228.865 594.064 222.506C594.155 221.848 594.216 221.114 594.261 220.297C594.314 219.261 594.223 218.218 594.042 217.174C593.83 215.987 593.483 214.8 593.044 213.65C592.364 211.851 591.299 210.331 589.984 209.113C588.019 207.283 585.488 206.172 582.828 205.892C584.347 209.62 585.261 214.233 585.367 219.806L590.43 227.875V227.867Z" fill="#CC9999"/>
<path d="M294.826 567.932C297.01 566.949 298.385 565.883 298.785 564.718L297.41 549.859L294.826 567.94V567.932Z" fill="#FFC800"/>
<path d="M260.155 515.747C245.019 512.797 234.886 508.699 234.78 503.564C234.107 471.811 239.518 418.733 246.553 364.77C249.236 344.171 252.16 323.444 255.07 303.73L254.941 303.775C252.531 320.306 250.105 337.676 247.808 355.318C225.908 356.157 180.636 354.478 180.054 354.433C174.183 353.389 168.183 354.047 162.636 352.89C160.815 363.303 158.412 377.157 155.759 392.826C150.22 425.524 143.578 466.117 138.802 499.73C134.034 533.26 131.124 559.841 133.006 564.718C134.094 567.531 140.51 569.793 150.228 571.524C158.215 572.946 168.424 574.005 179.759 574.7C188.495 575.237 197.896 575.562 207.44 575.683C218.246 575.812 229.248 575.683 239.699 575.267C246.871 574.988 253.778 574.587 260.186 574.058C259.581 552.135 259.649 532.746 260.148 515.747H260.155Z" fill="#FFC800"/>
<path d="M582.828 205.884C581.702 203.109 580.236 200.833 578.513 199.041C571.304 191.516 559.606 192.394 549.374 200.273C543.835 204.538 535.56 203.033 527.119 199.252C511.258 192.144 494.807 176.982 494.807 176.982L491.044 178.109L491.066 177.814C487.258 178.555 480.729 179.583 472.424 179.909C464.535 184.809 457.855 187.879 452.006 189.709C427.446 197.384 417.615 183.206 394.922 191.342C377.391 197.626 382.408 212.667 386.096 243.354C386.232 244.473 386.36 245.615 386.496 246.772C387.222 247.4 387.902 248.065 388.544 248.753C391.605 252.028 393.766 255.93 395.013 260.089C398.134 260.558 401.27 261.488 402.161 263.318C403.877 266.857 407.338 279.614 392.957 282.412C392.3 283.66 391.552 284.862 390.698 286.012C393.532 313.742 396.403 344.64 398.557 374.488C400.779 374.994 403.121 375.335 405.592 375.486H471.502C471.434 368.672 471.389 362.109 471.358 355.832C471.358 355.832 471.343 355.824 471.336 355.817C468.479 353.616 468.562 346.364 469.205 340.307C465.018 338.598 462.101 336.481 460.907 333.872C457.454 326.302 463.038 306.739 465.207 291.57C469.197 263.673 474.555 236.669 482.066 227.89C489.608 239.83 505.333 256.588 534.926 258.826C562.364 260.898 585.873 246.893 585.359 219.791C585.253 214.218 584.331 209.605 582.82 205.877L582.828 205.884Z" fill="#FFC800"/>
<path d="M254.934 303.775L255.062 303.73C255.893 298.073 256.732 292.492 257.556 287.025C257.51 287.025 257.458 287.025 257.412 287.025C256.589 292.492 255.765 298.081 254.934 303.775Z" fill="#999999"/>
<path d="M119.018 179.515C117.991 179.364 116.978 179.205 115.973 179.039C114.635 181.943 113.215 184.726 111.703 187.35C112.036 187.093 112.368 186.843 112.701 186.586C115.278 184.605 117.514 182.389 119.018 179.515Z" fill="#999999"/>
<path d="M97.799 205.446C97.9577 205.378 98.1164 205.302 98.2751 205.234C101.593 203.744 104.781 202.179 107.751 200.545C107.993 200.417 108.235 200.281 108.477 200.152C108.741 200.001 108.998 199.857 109.255 199.706C109.512 199.555 109.776 199.411 110.033 199.26C112.656 197.725 115.066 196.137 117.212 194.488C117.288 194.435 117.363 194.375 117.439 194.322C117.681 194.133 117.907 193.944 118.142 193.762C118.331 193.611 118.527 193.46 118.716 193.301C118.95 193.104 119.169 192.908 119.396 192.711C119.479 192.636 119.57 192.56 119.653 192.492C120.522 191.728 121.331 190.949 122.071 190.163C123.598 188.537 125.094 186.972 126.56 185.459C127.225 184.771 127.882 184.106 128.532 183.44C129.394 182.563 130.248 181.708 131.094 180.869C127.331 180.589 123.635 180.181 120.069 179.667C118.86 182.094 117.227 184.31 114.953 186.223C113.434 187.501 111.832 188.696 110.207 189.86C106.519 195.834 102.401 200.908 98.0106 204.75C97.5119 205.189 97.0131 205.612 96.5068 206.013C96.6126 205.967 96.726 205.922 96.8318 205.869C97.1567 205.725 97.4892 205.582 97.8066 205.438L97.799 205.446Z" fill="#999999"/>
<path d="M160.422 249.419C157.082 249.404 153.976 249.805 150.983 250.523C150.228 250.704 149.479 250.909 148.731 251.128C144.794 252.285 140.993 253.956 137.011 255.869C136.346 256.187 135.673 256.52 134.993 256.852C132.152 258.251 129.197 259.756 126.016 261.276C125.782 261.39 125.547 261.503 125.313 261.609C124.648 261.927 123.976 262.237 123.295 262.554C120.817 263.696 118.187 264.83 115.376 265.919C114.643 266.207 113.895 266.486 113.132 266.766C110.842 267.606 108.431 268.407 105.877 269.163C105.038 269.413 104.177 269.655 103.3 269.889C100.603 270.623 97.7461 271.288 94.7083 271.886C93.6957 272.082 92.668 272.271 91.6176 272.453C90.4388 272.657 89.2448 272.846 88.0131 273.02C85.1189 273.436 82.3984 273.655 79.8518 273.686C79.6176 273.686 79.3909 273.686 79.1566 273.686C78.8846 273.686 78.605 273.686 78.3329 273.686C78.1062 273.686 77.8871 273.67 77.6604 273.663C72.9903 273.527 68.9021 272.771 65.3353 271.515C64.3605 271.175 63.4311 270.789 62.5394 270.373C62.3504 270.29 62.1691 270.199 61.9802 270.109C61.9197 270.078 61.8668 270.056 61.8064 270.025C60.7257 269.489 59.7131 268.906 58.7459 268.271C54.8239 265.685 51.8315 262.312 49.7609 258.516C47.2521 258.266 45.1891 257.752 43.4964 257.057C41.4863 276.922 46.7609 296.886 66.9827 312.222C60.4461 371.433 83.2826 390.701 83.2826 390.701C83.2826 390.701 104.593 390.723 128.041 391.495C128.729 391.517 129.409 391.54 130.096 391.563C138.749 391.865 147.605 392.266 155.736 392.81C158.389 377.142 160.792 363.288 162.613 352.875C160.527 352.444 158.495 351.756 156.568 350.622C155.782 350.108 155.034 349.525 154.346 348.86C152.283 346.863 150.741 344.179 150.144 340.791C149.351 335.823 149.752 331.308 150.689 326.794C150.938 325.629 151.263 324.45 151.656 323.262C151.875 322.204 152.132 321.16 152.427 320.116C154.202 313.878 157.331 307.919 160.633 302.573C161.177 301.552 161.706 300.546 162.197 299.548C162.681 298.565 163.134 297.597 163.543 296.644C164.374 294.678 164.812 292.56 164.812 290.42C164.812 290.413 164.812 290.398 164.812 290.39C164.835 289.347 165.273 288.19 164.797 287.267C153.825 265.889 166.686 255.801 168.175 252.86C168.235 252.761 168.296 252.663 168.356 252.565C166.331 251.544 164.396 250.5 162.56 249.479C161.827 249.442 161.117 249.419 160.407 249.411L160.422 249.419Z" fill="#999999"/>
<path d="M66.8771 216.592C69.7335 215.738 72.7108 214.807 75.7411 213.817C75.9527 213.749 76.1567 213.681 76.3683 213.613C76.7235 213.499 77.0711 213.378 77.4262 213.257C77.7209 213.159 78.0157 213.061 78.3104 212.962C78.4993 212.902 78.6882 212.834 78.8771 212.766C77.0862 212.713 75.2801 212.425 73.4816 211.888C67.7763 210.179 64.0282 208.145 61.6856 205.983C57.7939 212.804 53.9399 220.479 50.7661 228.608C54.2044 223.171 59.5848 218.77 66.8771 216.592Z" fill="#999999"/>
<path d="M728.052 265.829C729.609 259.454 730.524 252.512 730.599 244.965C721.78 253.427 709.455 258.191 696.753 258.055C696.836 259.658 696.926 261.261 697.032 262.864C689.717 266.97 681.231 268.173 672.707 268.475C661.674 268.876 650.558 268.642 639.518 268.513C624.986 268.347 610.462 267.81 596.021 266.449C596.12 271.977 595.946 277.119 596.059 283.32C599.195 283.176 602.18 282.979 604.727 282.987C614.822 282.994 624.911 283.002 635.007 282.987C655.561 282.964 676.123 282.896 696.677 282.79C698.128 282.783 698.982 283.614 699.276 284.62C699.314 284.9 699.352 285.172 699.39 285.452C699.367 286.745 698.46 288.023 696.677 288.031C673.878 288.152 651.08 288.22 628.273 288.235C617.581 288.235 606.888 288.235 596.203 288.212C596.331 291.192 596.535 294.443 596.868 298.088C597.601 306.149 598.961 316.131 601.44 329.35C602.361 334.273 599.618 338.81 595.462 341.419C604.462 342.591 614.686 343.476 625.13 343.997C627.435 344.111 629.739 344.209 632.052 344.285C658.024 345.154 683.899 343.657 694.229 338.575C695.12 338.137 695.906 337.676 696.556 337.184C707.43 328.934 706.803 315.799 704.642 306.785C708.443 302.996 712.183 298.64 715.607 293.649C710.997 295.449 706.077 296.341 701.15 296.364L700.916 295.048C700.682 293.74 700.463 292.432 700.251 291.124C706.954 291.214 713.71 289.422 719.453 285.724C719.861 285.46 720.269 285.324 720.662 285.286C722.808 281.232 724.705 276.846 726.254 272.105C717.352 275.077 707.68 276.264 698.166 275.773C697.969 274.011 697.795 272.249 697.629 270.487C708.004 271.152 718.599 269.67 728.037 265.813L728.052 265.829Z" fill="#999999"/>
<path d="M694.342 244.92C661.569 254.387 626.301 254.039 593.883 244.42C595.024 251.083 595.583 256.421 595.84 261.201C609.616 262.524 623.483 263.061 637.349 263.257C647.929 263.409 658.531 263.477 669.103 263.326C678.715 263.182 688.312 262.395 696.36 257.026C696.465 256.958 696.571 256.913 696.677 256.852C696.617 255.529 696.564 254.198 696.518 252.875C709.758 253.155 722.627 247.173 730.372 237.063C729.904 229.894 728.702 222.241 726.602 214.051C726.564 213.9 726.519 213.749 726.481 213.598C720.11 225.939 710.763 236.926 696.337 240.254C696.345 238.462 696.375 236.662 696.413 234.87C710.581 231.005 718.894 218.036 724.259 205.362C722.136 197.105 720.549 188.711 719.385 180.249C716.808 188.113 713.4 195.744 709.161 202.988C706.123 208.176 702.163 213.477 697.13 217.152C697.214 214.724 697.266 212.342 697.297 210.006C701.453 205.741 704.559 200.16 707.015 195.433C711.579 186.654 714.859 177.39 717.005 167.877C713.717 155.612 708.269 147.233 702.042 141.539C701.793 152.186 700.886 162.864 698.634 173.171C697.984 176.135 697.13 179.054 696.08 181.905C695.589 177.118 694.954 172.611 694.221 168.339C680.309 175.939 660.979 175.16 645.646 174.252C641.604 174.01 637.583 173.64 633.578 173.148C616.092 179.016 604.44 179.674 597.404 179.031C597.389 179.697 597.367 180.385 597.336 181.088C628.402 189.58 660.919 192.288 693.231 189.021C696.828 188.658 696.79 193.898 693.231 194.261C660.851 197.536 628.107 194.844 596.906 186.435C596.422 190.662 595.538 195.237 594.034 199.819C627.714 207.85 662.951 209.166 697.304 203.495C697.327 205.226 697.327 207.003 697.319 208.788C662.309 214.384 626.43 213.023 592.13 204.773C591.487 206.232 590.785 207.684 589.984 209.098C591.291 210.316 592.356 211.836 593.044 213.635C593.482 214.792 593.83 215.972 594.042 217.159C606.601 219.889 619.644 221.054 632.483 222.158C653.982 224.003 676.621 225.704 697.108 218.346C697.04 220.161 696.957 221.984 696.851 223.852C696.851 223.882 696.851 223.912 696.851 223.942C676.244 230.589 654.065 229.251 632.483 227.398C619.651 226.294 606.646 225.115 594.072 222.498C593.218 228.858 590.437 227.86 590.437 227.86C591.374 231.777 592.152 235.331 592.802 238.59C624.949 248.738 660.178 249.298 692.853 239.86C696.322 238.855 697.795 243.914 694.35 244.912L694.342 244.92ZM696.564 244.209C696.911 244.98 696.821 246.417 696.397 248.353C696.367 246.81 696.345 245.26 696.337 243.717C696.413 243.884 696.481 244.042 696.556 244.209H696.564Z" fill="#999999"/>
<path d="M632.868 121.756C657.669 120.131 681.987 119.896 691.546 123.98C687.156 93.8979 669.495 89.6178 663.057 89.0733C661.584 88.9448 660.692 89.0204 660.692 89.0204C659.505 89.0204 658.349 89.0279 657.208 89.0431C647.997 89.1565 640.221 89.7463 633.639 90.7218C629.528 91.3344 625.878 92.0981 622.659 92.998C617.702 94.3894 613.757 96.0985 610.636 98.0722C603.268 102.723 600.503 108.81 599.951 115.488C600.45 115.457 600.948 115.435 601.455 115.412C616.1 114.92 622.772 119.095 632.868 121.764V121.756Z" fill="#999999"/>
<path d="M664.576 169.617C674.861 169.337 685.161 167.711 693.178 162.773C693.488 164.278 693.775 165.813 694.055 167.386C695.483 158.856 696.156 150.16 696.382 141.471C694.924 142.401 693.488 143.301 692.068 144.186C672.231 156.534 655.75 164.694 642.216 170.01C649.72 171.016 657.465 170.993 664.569 169.624L664.576 169.617Z" fill="#999999"/>
<path d="M344.912 120.479C342.97 120.01 340.861 119.579 338.564 119.17C334.158 118.384 329.095 117.696 323.307 117.06C317.337 116.403 312.501 116.282 308.564 116.501C306.569 116.614 304.808 116.811 303.251 117.083C292.385 118.951 291.622 124.01 291.622 124.01C291.486 124.456 291.38 124.887 291.282 125.326C283.747 157.275 357.085 160.724 362.534 139.263C362.655 138.779 362.753 138.295 362.806 137.788C363.191 134.075 362.557 131.058 360.735 128.555C358.113 124.955 353.028 122.43 344.912 120.479Z" fill="#345F96"/>
<path d="M135.16 132.918C135.19 132.858 135.22 132.797 135.25 132.729C134.812 132.525 134.374 132.313 133.943 132.094L135.152 132.918H135.16Z" fill="#D9D9D9"/>
<path d="M119.404 178.744C120.749 175.81 121.414 172.581 121.951 169.412C122.457 166.425 122.774 163.386 122.744 160.361C120.915 166.955 118.626 173.246 115.973 179.039C116.978 179.205 117.991 179.364 119.019 179.515C119.155 179.258 119.291 179.009 119.411 178.744H119.404Z" fill="#D9D9D9"/>
<path d="M120.061 179.667C123.628 180.173 127.323 180.589 131.087 180.869C130.248 181.701 129.394 182.563 128.525 183.44C131.759 206.981 139.422 229.795 150.983 250.523C153.976 249.805 157.074 249.404 160.422 249.419C158.306 246.197 156.379 242.863 154.626 239.422C153.689 243.226 153.167 245.585 153.167 245.585C148.769 242.878 146.102 240.912 146.102 240.912C146.517 236.715 147.001 232.745 147.538 228.971C146.737 226.045 146.548 222.869 146.532 219.761C144.069 212.388 142.051 204.863 140.208 197.324C138.605 190.783 136.799 184.189 135.862 177.519C135.809 177.133 135.757 176.748 135.711 176.362C136.399 175.704 137.087 175.061 137.759 174.426C138.069 178.192 138.908 181.973 139.739 185.557C141.575 193.513 143.457 201.468 145.686 209.333C145.996 210.437 146.321 211.533 146.653 212.637C146.941 204.515 148.203 196.787 151.346 189.195C154.527 181.512 158.903 174.411 163.195 167.318C163.263 167.204 163.331 167.091 163.399 166.978C160.006 164.875 156.81 162.713 153.847 160.603C141.93 152.111 133.709 144.405 130.588 144.155H126.167C125.532 148.458 124.686 152.708 123.658 156.859C124.059 160.709 123.825 164.633 123.228 168.52C122.623 172.483 121.754 176.279 120.061 179.659V179.667Z" fill="#D9D9D9"/>
<path d="M697.146 217.159C702.179 213.477 706.146 208.183 709.176 202.996C713.415 195.744 716.816 188.121 719.4 180.256C719.355 179.924 719.302 179.591 719.257 179.266C718.705 175.137 717.942 171.363 717.012 167.893C714.866 177.406 711.587 186.669 707.022 195.449C704.566 200.175 701.461 205.756 697.304 210.021C697.282 212.357 697.229 214.739 697.138 217.167L697.146 217.159Z" fill="#D9D9D9"/>
<path d="M696.692 256.852C696.715 257.253 696.73 257.654 696.753 258.055C709.463 258.191 721.78 253.427 730.599 244.965C730.622 242.401 730.561 239.77 730.38 237.063C722.634 247.173 709.765 253.155 696.526 252.875C696.571 254.198 696.624 255.529 696.685 256.852H696.692Z" fill="#D9D9D9"/>
<path d="M700.267 291.131C700.478 292.439 700.697 293.748 700.932 295.056L701.166 296.372C706.085 296.349 711.012 295.449 715.622 293.657C717.413 291.04 719.113 288.258 720.677 285.293C720.284 285.339 719.884 285.467 719.468 285.732C713.725 289.43 706.969 291.222 700.267 291.131Z" fill="#D9D9D9"/>
<path d="M696.685 282.79C676.13 282.904 655.568 282.972 635.014 282.987C624.918 282.994 614.83 282.994 604.734 282.987C602.188 282.987 599.203 283.176 596.067 283.32C595.961 277.119 596.135 271.977 596.029 266.449C595.999 264.747 595.938 263.015 595.84 261.193C595.576 256.414 595.024 251.075 593.883 244.413C626.301 254.032 661.568 254.38 694.342 244.912C697.788 243.914 696.314 238.862 692.846 239.861C660.178 249.298 624.941 248.738 592.795 238.59C592.145 235.331 591.367 231.777 590.429 227.86L585.366 219.791C585.88 246.893 562.371 260.898 534.933 258.826C505.348 256.588 489.623 239.83 482.074 227.89C474.57 236.669 469.212 263.666 465.215 291.57C463.046 306.739 457.461 326.302 460.915 333.872C462.109 336.488 465.026 338.606 469.212 340.307C493.839 350.334 562.81 346.047 588.933 343.657C590.437 343.521 591.903 343.135 593.278 342.561C594.042 342.243 594.775 341.857 595.47 341.426C599.626 338.817 602.369 334.273 601.447 329.357C598.969 316.131 597.608 306.149 596.875 298.096C596.543 294.451 596.339 291.199 596.21 288.22C606.903 288.235 617.596 288.25 628.281 288.242C651.08 288.227 673.886 288.159 696.685 288.038C698.468 288.031 699.367 286.753 699.397 285.46C699.36 285.18 699.322 284.908 699.284 284.628C698.997 283.63 698.135 282.79 696.685 282.798V282.79Z" fill="#D9D9D9"/>
<path d="M274.271 183.675C274.173 183.644 274.075 183.622 273.977 183.591C274.029 183.879 274.075 184.174 274.128 184.461C274.181 184.166 274.226 183.909 274.271 183.675Z" fill="#D9D9D9"/>
<path d="M122.064 190.163C121.323 190.949 120.515 191.721 119.646 192.492C117.212 214.944 126.159 236.223 137.018 255.877C141.001 253.956 144.802 252.293 148.739 251.136C137.479 230.794 129.945 208.486 126.56 185.459C125.094 186.972 123.598 188.537 122.071 190.163H122.064Z" fill="#D9D9D9"/>
<path d="M117.212 194.488C115.066 196.137 112.656 197.725 110.033 199.26C108.991 220.963 114.386 242.863 125.328 261.617C125.562 261.503 125.797 261.39 126.031 261.284C129.205 259.764 132.167 258.259 135.008 256.86C124.338 237.471 115.565 216.577 117.212 194.496V194.488Z" fill="#D9D9D9"/>
<path d="M148.21 224.555C148.059 224.131 147.9 223.716 147.749 223.292C147.809 224.131 147.893 224.971 148.006 225.795C148.074 225.379 148.142 224.971 148.202 224.555H148.21Z" fill="#D9D9D9"/>
<path d="M107.751 200.545C104.774 202.179 101.593 203.744 98.2751 205.234C98.1165 205.302 97.9578 205.378 97.7991 205.446C98.0333 205.34 98.2676 205.234 98.5094 205.128C95.6379 226.619 101.933 248.98 115.391 265.919C118.202 264.83 120.824 263.696 123.311 262.554C112.452 243.838 107.003 222.196 107.759 200.545H107.751Z" fill="#D9D9D9"/>
<path d="M159.84 244.178C160.905 215.087 173.767 187.032 173.767 187.032C166.127 197.226 159.016 222.18 155.487 235.996C156.825 238.779 158.275 241.509 159.84 244.178Z" fill="#D9D9D9"/>
<path d="M147.734 214.21C147.727 214.8 147.711 215.412 147.696 216.025C148.112 217.348 148.55 218.664 148.996 219.972C153.137 197.233 159.485 182.366 165.817 168.452C165.326 168.165 164.842 167.87 164.366 167.575C160.293 174.298 156.137 181.013 152.986 188.227C149.329 196.583 147.908 205.128 147.749 214.21H147.734Z" fill="#D9D9D9"/>
<path d="M96.0914 206.33C93.5825 208.289 90.9906 209.847 88.3533 210.936C84.9603 222.899 85.5044 235.913 90.1896 247.491C93.5825 255.884 99.0536 263.318 105.9 269.163C108.454 268.407 110.865 267.606 113.154 266.766C111.908 265.171 110.714 263.537 109.588 261.858C98.774 245.653 93.8999 225.651 96.0989 206.338L96.0914 206.33Z" fill="#D9D9D9"/>
<path d="M88.0058 248.088C83.3584 236.571 82.7615 223.768 85.8068 211.836C83.5171 212.509 81.2048 212.834 78.8773 212.766C78.6884 212.834 78.4995 212.894 78.3105 212.962C76.58 218.702 76.036 224.767 75.8093 230.778C75.507 238.719 75.3785 247.105 78.6279 254.531C81.9075 262.032 87.9378 267.477 94.7389 271.893C97.7767 271.296 100.633 270.63 103.331 269.897C96.6809 263.915 91.3912 256.459 88.0209 248.096L88.0058 248.088Z" fill="#D9D9D9"/>
<path d="M96.4917 206.02C96.5975 205.975 96.7108 205.922 96.8166 205.877C96.7108 205.922 96.5975 205.975 96.4917 206.02Z" fill="#D9D9D9"/>
<path d="M79.5724 260.838C76.119 255.832 74.381 250.047 73.7537 244.035C73.0661 237.433 73.3457 230.589 73.9729 223.988C74.2978 220.539 74.857 217.129 75.7412 213.809C72.7109 214.807 69.7336 215.738 66.8771 216.585C59.5849 218.762 54.2045 223.171 50.7662 228.601C49.3909 230.771 48.3329 233.108 47.5773 235.535C45.2422 243.097 45.9526 251.521 49.7763 258.516C51.8544 262.312 54.8393 265.685 58.7612 268.271C57.4766 265.768 56.4186 263.152 55.5874 260.482C51.9602 248.859 52.6705 236.495 53.9627 224.487C54.741 223.647 55.5798 222.853 56.4791 222.112C55.0962 234.219 54.0307 246.742 57.3783 258.584C58.5496 262.721 60.2801 266.736 62.5547 270.373C63.4539 270.789 64.3834 271.175 65.3507 271.515C68.7663 272.71 72.658 273.459 77.0787 273.633C72.3104 268.279 68.4187 262.138 65.6681 255.453C60.8469 243.74 59.7965 230.688 62.3431 218.339C63.1668 217.946 64.0207 217.583 64.9048 217.25C62.0635 229.493 62.8872 242.462 67.5799 254.206C70.4817 261.45 74.8041 268.052 80.1619 273.678C82.6329 273.633 85.2475 273.421 88.0284 273.02C89.2602 272.846 90.4541 272.65 91.633 272.453C91.3534 272.256 91.0738 272.067 90.7942 271.871C86.5171 268.785 82.58 265.201 79.5724 260.838Z" fill="#D9D9D9"/>
<path d="M77.6832 273.67C77.4791 273.67 77.2827 273.648 77.0862 273.64C77.0862 273.64 77.0862 273.64 77.0937 273.648C77.2902 273.655 77.4867 273.663 77.6832 273.663V273.67Z" fill="#D9D9D9"/>
<path d="M80.1692 273.686C80.071 273.686 79.9727 273.686 79.8745 273.693C79.9727 273.693 80.071 273.693 80.1692 273.686Z" fill="#D9D9D9"/>
<path d="M287.556 189.701C285.01 188.242 283.143 187.304 282.357 187.085C282.153 186.972 281.941 186.858 281.737 186.752L280.173 187.085L278.541 188.575C279.244 190.208 279.947 191.842 280.649 193.475C280.982 194.254 281.322 195.033 281.647 195.819C285.206 204.379 287.299 212.955 286.332 222.264C285.395 231.293 282.357 239.921 279.229 248.39C279.198 252.55 279.108 254.917 279.108 254.917C279.108 254.917 276.667 254.667 272.586 254.395C271.657 240.745 269.541 225.122 268.302 216.592C267.727 212.645 267.334 210.21 267.334 210.21L267.697 219.897L268.989 254.183C266.745 254.062 264.191 253.956 261.425 253.881C259.717 253.835 257.934 253.797 256.075 253.782C253.173 253.76 250.12 253.782 246.969 253.865L243.448 224.056C243.448 224.056 243.357 238.189 243.402 253.986C237.591 254.236 231.568 254.72 225.757 255.567L223.105 247.838V255.983C218.223 256.799 213.538 257.888 209.314 259.333C195.545 264.029 180.492 258.69 168.379 252.565C168.319 252.663 168.258 252.761 168.198 252.86C166.717 255.809 153.855 265.889 164.82 287.267C165.296 288.197 164.858 289.354 164.835 290.39C164.835 290.398 164.835 290.413 164.835 290.42C164.835 292.56 164.397 294.678 163.565 296.644C163.157 297.604 162.704 298.572 162.22 299.548C161.729 300.546 161.2 301.552 160.656 302.573C157.354 307.919 154.225 313.878 152.449 320.116C152.155 321.152 151.898 322.204 151.679 323.262C151.286 324.45 150.968 325.629 150.711 326.794C149.774 331.308 149.374 335.823 150.167 340.791C150.764 344.179 152.306 346.863 154.369 348.86C155.057 349.525 155.805 350.115 156.591 350.622C158.518 351.764 160.55 352.444 162.636 352.875C168.183 354.025 174.183 353.367 180.054 354.418C180.636 354.463 225.908 356.142 247.808 355.303C250.105 337.66 252.531 320.29 254.941 303.76C255.773 298.073 256.604 292.477 257.42 287.01C258.523 279.69 259.604 272.589 260.669 265.768L260.813 265.829L262.944 266.668C266.798 268.18 270.72 269.504 274.687 270.676C283.808 244.768 290.889 217.099 287.556 189.686V189.701Z" fill="#D9D9D9"/>
<path d="M366.924 238.129C365.133 237.539 363.327 236.934 361.514 236.299C357.539 257.094 347.919 276.718 333.728 292.53C334.143 292.666 334.544 292.802 334.967 292.931C335.851 293.203 336.758 293.475 337.68 293.74C337.974 293.823 338.277 293.906 338.571 293.99C339.214 294.164 339.856 294.345 340.513 294.511C340.876 294.602 341.246 294.693 341.609 294.784C341.972 294.874 342.327 294.973 342.697 295.056C342.954 295.116 343.219 295.177 343.483 295.237C343.876 295.328 344.277 295.419 344.67 295.51C345.312 295.653 345.962 295.789 346.619 295.925C346.876 295.978 347.126 296.031 347.383 296.084C354.796 285.588 361.861 274.646 364.899 262.017C366.788 254.175 367.196 246.167 366.917 238.144L366.924 238.129Z" fill="#D9D9D9"/>
<path d="M384.358 265.36C385.37 259.227 385.945 252.981 386.504 246.78C384.652 245.169 382.544 243.763 380.171 242.621C380.02 250.856 378.962 259.023 376.181 267.099C372.395 278.071 366.554 288.129 360.32 297.884C364.174 298.096 367.673 297.907 370.839 297.393C374.458 294.247 376.824 289.483 378.698 285.24C381.494 278.926 383.232 272.166 384.358 265.367V265.36Z" fill="#D9D9D9"/>
<path d="M388.552 248.761C387.909 255.31 387.32 261.889 386.103 268.354C384.788 275.334 382.741 282.193 379.612 288.575C378.244 291.373 376.665 294.171 374.677 296.561C375.562 296.319 376.423 296.054 377.254 295.759C383.081 293.695 387.554 290.231 390.698 286.012C391.552 284.862 392.3 283.66 392.957 282.412C396.562 275.576 397.219 267.439 395.013 260.089C393.766 255.937 391.612 252.028 388.544 248.753L388.552 248.761Z" fill="#D9D9D9"/>
<path d="M378.078 244.073C378.101 243.294 378.101 242.507 378.108 241.728C377.292 241.411 376.461 241.108 375.592 240.851C373.514 240.231 371.375 239.566 369.191 238.87C369.426 246.848 368.965 254.803 367.083 262.615C364.06 275.168 357.153 286.087 349.816 296.538C349.891 296.553 349.959 296.561 350.035 296.576C350.39 296.636 350.738 296.704 351.101 296.765C352.211 296.954 353.337 297.135 354.501 297.302C355.619 297.461 356.7 297.589 357.766 297.695C364.136 287.819 370.166 277.64 374.005 266.502C376.506 259.242 377.874 251.748 378.078 244.073Z" fill="#D9D9D9"/>
<path d="M279.229 245.116C282.538 235.989 285.531 226.559 285.478 216.789C285.44 209.083 282.977 202.035 280.082 195.078C279.319 193.248 278.526 191.426 277.74 189.596C277.71 189.52 277.679 189.452 277.649 189.376L275.269 191.554C275.805 195.123 276.266 198.655 276.667 202.096C278.737 219.851 279.183 235.543 279.221 245.116H279.229Z" fill="#D9D9D9"/>
<path d="M339.418 227.232C335.813 248.028 326.798 267.757 313.287 283.985C313.045 283.864 312.796 283.743 312.546 283.622C312.69 283.69 312.833 283.766 312.969 283.834C313.219 283.955 313.476 284.083 313.725 284.204C314.133 284.401 314.541 284.605 314.957 284.809C315.214 284.93 315.463 285.059 315.72 285.18C316.166 285.392 316.612 285.611 317.065 285.823C317.292 285.928 317.518 286.034 317.745 286.148C317.806 286.178 317.866 286.208 317.927 286.231C318.546 286.526 319.181 286.813 319.823 287.108C320.518 287.426 321.229 287.743 321.954 288.053C322.037 288.091 322.121 288.129 322.204 288.159C335.337 271.485 343.453 251.158 345.652 230.121C343.521 229.183 341.428 228.223 339.41 227.224L339.418 227.232Z" fill="#D9D9D9"/>
<path d="M347.836 231.058C345.509 252.058 337.37 272.332 324.357 289.067C323.783 288.825 323.216 288.59 322.657 288.348C323.156 288.568 323.662 288.779 324.176 288.991C324.455 289.105 324.743 289.226 325.03 289.339C325.317 289.452 325.597 289.573 325.884 289.694C326.08 289.77 326.284 289.846 326.481 289.929C326.783 290.05 327.093 290.171 327.403 290.292C327.614 290.375 327.818 290.458 328.037 290.541C328.325 290.647 328.619 290.753 328.914 290.867C329.224 290.98 329.526 291.093 329.843 291.207C330.357 291.396 330.879 291.577 331.408 291.759C345.773 276.045 355.461 256.391 359.375 235.55C355.499 234.159 351.614 232.661 347.836 231.073V231.058Z" fill="#D9D9D9"/>
<path d="M288.387 274.109C288.735 274.185 289.082 274.253 289.43 274.328C289.082 274.26 288.735 274.185 288.387 274.109Z" fill="#D9D9D9"/>
<path d="M294.705 275.674C294.614 275.644 294.531 275.621 294.44 275.599C295.158 275.826 295.876 276.06 296.594 276.317C296.533 276.294 296.48 276.272 296.42 276.249C295.853 276.045 295.279 275.856 294.705 275.674Z" fill="#D9D9D9"/>
<path d="M327.471 220.328C323.692 241.343 315.758 261.526 304.128 279.478C304.105 279.463 304.075 279.455 304.052 279.44C304.438 279.622 304.823 279.803 305.216 279.992C305.397 280.083 305.579 280.166 305.76 280.257C306.342 280.537 306.924 280.824 307.513 281.111C308.057 281.384 308.609 281.656 309.161 281.928C309.236 281.966 309.312 282.004 309.387 282.042C309.901 282.299 310.423 282.556 310.952 282.82C311.042 282.866 311.133 282.911 311.224 282.957C324.863 266.759 333.826 246.946 337.287 226.158C333.712 224.313 330.395 222.362 327.478 220.328H327.471Z" fill="#D9D9D9"/>
<path d="M298.294 196.447C297.818 196.122 297.342 195.804 296.873 195.494C295.763 194.76 294.69 194.057 293.647 193.399C293.095 193.044 292.551 192.704 292.022 192.378C291.312 191.94 290.632 191.524 289.982 191.131C292.846 218.294 285.886 245.638 276.848 271.319C277.8 271.583 278.752 271.848 279.712 272.097C281.987 272.687 284.276 273.232 286.574 273.738C287.178 273.867 287.783 273.996 288.387 274.117C296.707 249.994 301.415 224.729 302.352 199.26C300.984 198.284 299.624 197.347 298.294 196.447Z" fill="#D9D9D9"/>
<path d="M315.69 209.786C315.69 209.786 315.644 209.741 315.622 209.726C314.745 208.939 313.838 208.153 312.909 207.374C311.05 205.809 309.108 204.266 307.136 202.769C306.282 202.118 305.428 201.483 304.566 200.855C303.501 225.946 298.778 250.841 290.601 274.585C290.405 274.54 290.216 274.495 290.027 274.457C289.831 274.419 289.634 274.374 289.43 274.336C289.627 274.374 289.823 274.419 290.027 274.457C290.186 274.487 290.345 274.525 290.496 274.563C290.73 274.616 290.964 274.661 291.191 274.714C291.561 274.797 291.931 274.888 292.302 274.986C292.521 275.047 292.748 275.1 292.967 275.16C293.36 275.266 293.753 275.387 294.146 275.5C294.244 275.531 294.342 275.561 294.44 275.591C305.262 255.06 312.471 232.745 315.69 209.786Z" fill="#D9D9D9"/>
<path d="M325.453 218.861C323.571 217.424 321.886 215.949 320.465 214.429C319.596 213.507 318.659 212.569 317.677 211.631C314.337 234.181 307.211 256.089 296.609 276.31C296.609 276.31 296.601 276.31 296.594 276.31C297.108 276.491 297.621 276.68 298.135 276.884C298.324 276.96 298.513 277.036 298.702 277.111C299.087 277.262 299.473 277.421 299.858 277.58C300.077 277.671 300.297 277.769 300.523 277.86C300.878 278.011 301.234 278.17 301.596 278.329C301.755 278.397 301.906 278.465 302.065 278.54C313.816 260.452 321.795 240.087 325.46 218.868L325.453 218.861Z" fill="#D9D9D9"/>
<path d="M303.357 279.123C302.994 278.956 302.632 278.79 302.269 278.624C302.201 278.593 302.125 278.563 302.057 278.525C302.715 278.82 303.38 279.123 304.045 279.44C304.03 279.44 304.022 279.425 304.007 279.425C303.788 279.319 303.569 279.221 303.35 279.123H303.357Z" fill="#D9D9D9"/>
<path d="M522.344 103.033C526.16 105.128 530.8 107.124 536.422 108.946C548.142 112.75 557.853 112.622 565.719 110.224C577.742 106.557 585.457 97.5655 589.432 89.0733C593.989 79.341 585.404 73.2535 585.404 73.2535C585.404 73.2913 583.598 85.9653 556.009 91.2966C528.381 96.6278 508.243 70.5614 508.243 70.5614C508.243 70.5614 508.228 70.5917 508.197 70.6371C507.427 71.9302 497.588 89.4892 522.336 103.04L522.344 103.033Z" fill="#345F96"/>
<path d="M472.424 179.901C480.729 179.576 487.258 178.555 491.066 177.806C493.477 177.338 494.807 176.975 494.807 176.975C494.807 176.975 511.258 192.129 527.119 199.245C535.56 203.026 543.835 204.538 549.374 200.266C559.606 192.386 571.303 191.509 578.513 199.033C580.236 200.825 581.694 203.101 582.828 205.877C585.487 206.149 588.019 207.268 589.984 209.098C590.785 207.676 591.488 206.232 592.13 204.773C626.422 213.023 662.302 214.384 697.319 208.788C697.327 206.996 697.327 205.226 697.304 203.495C662.951 209.166 627.714 207.85 594.034 199.819C595.545 195.237 596.422 190.662 596.906 186.435C597.117 184.574 597.261 182.782 597.344 181.096C597.374 180.393 597.397 179.704 597.412 179.039C604.447 179.682 616.1 179.016 633.586 173.156C637.591 173.647 641.619 174.018 645.654 174.26C660.979 175.167 680.309 175.939 694.229 168.346C694.176 168.029 694.115 167.703 694.062 167.386C693.783 165.813 693.496 164.278 693.186 162.773C685.168 167.711 674.868 169.337 664.584 169.617C657.48 170.985 649.735 171.008 642.231 170.002C655.765 164.694 672.239 156.527 692.083 144.178C693.503 143.293 694.939 142.393 696.398 141.463C697.44 140.798 698.498 140.117 699.556 139.429C699.828 139.255 700.093 139.081 700.365 138.907C700.365 138.907 700.191 137.932 699.813 136.48C699.979 136.684 700.078 136.911 700.115 137.153C700.199 137.743 700.229 135.807 698.793 133.16C697.818 130.438 696.345 127.398 694.274 125.598C693.586 125.001 692.665 124.464 691.554 123.987C682.002 119.904 657.684 120.138 632.876 121.764C622.78 119.095 616.107 114.928 601.462 115.412C600.956 115.427 600.457 115.457 599.959 115.488C583.84 116.35 573.503 122.059 568.492 125.681C567.933 118.845 565.122 116.501 560.656 115.722C559.583 115.533 558.419 115.442 557.165 115.397C551.875 115.2 545.051 115.873 537.321 114.383C535.802 114.089 534.434 113.968 533.195 113.968C531.487 113.968 530.021 114.21 528.767 114.648C524.951 115.987 523.099 119.064 522.215 122.119C518.626 121.068 509.202 119.261 492.086 121.991C485.406 123.057 477.57 124.804 468.434 127.564C454.454 131.791 431.98 118.27 409.28 113.34C392.028 109.597 374.64 110.814 360.743 128.562C362.564 131.065 363.199 134.083 362.813 137.796C362.761 138.302 362.662 138.786 362.541 139.27C373.809 146.552 392.851 158.198 414.131 168.399C435.691 178.729 457.091 180.514 472.439 179.916L472.424 179.901Z" fill="#D9D9D9"/>
<path d="M298.067 94.9037C298.067 94.9037 298.249 94.9869 298.566 95.123C302.329 96.7337 327.554 106.746 356.058 99.1687C356.058 99.1687 368.443 96.9908 361.551 78.978C361.551 78.978 362.043 77.6849 362.624 75.5826C362.912 74.5315 363.229 73.2762 363.516 71.8848C365.239 64.232 363.909 55.6491 359.496 49.176C358.861 48.2534 358.174 47.3687 357.41 46.5368C356.647 45.705 355.831 44.9261 354.947 44.2153C354.849 44.1397 354.743 44.064 354.645 43.9884C359.133 41.7803 362.05 37.0011 361.619 31.7077C361.06 24.7959 355 19.6462 348.1 20.2133C341.194 20.7729 336.048 26.8377 336.614 33.7418C336.796 35.9348 337.529 37.9463 338.662 39.6554C337.891 39.6705 337.113 39.7083 336.342 39.7764C328.279 40.1091 321.372 43.7842 315.07 48.3668C311.836 50.7186 308.269 52.6016 304.438 53.7283C289.037 58.2731 293.722 74.2517 293.722 74.2517C293.722 74.2517 286.823 91.4478 298.067 94.9037Z" fill="#D9D9D9"/>
<path d="M462.086 71.2647C463.673 69.7145 464.935 67.8996 465.502 65.6461C466.575 61.3962 464.164 57.827 460.854 55.392C457.348 52.8209 452.436 51.0892 448.22 52.9041C445.461 54.0913 443.482 56.4809 440.368 54.3787C437.754 52.6167 437.179 49.1533 436.665 46.2797C436.537 45.5689 435.449 45.8714 435.577 46.5822C436.227 50.1817 437.187 54.3711 440.92 55.9743C441.29 56.1331 441.645 56.2389 441.993 56.307C438.985 57.7438 435.766 58.6664 432.434 58.9613C432.373 58.9613 432.32 58.9688 432.26 58.9764C427.983 59.3999 424.227 61.6685 421.779 64.958C417.486 67.8391 414.275 72.1646 413.655 77.4353C413.066 82.4641 415.794 86.1317 420.517 87.6441C423.366 88.5591 426.396 89.096 429.471 89.3607C427.401 91.4478 425.24 93.7164 422.973 96.1817C422.36 96.5144 421.733 96.832 421.091 97.1193C417.902 98.5486 414.622 99.5468 412.529 102.556C410.428 105.574 409.484 109.211 409.491 112.871C409.416 113.022 409.355 113.174 409.287 113.325C431.995 118.255 454.461 131.776 468.441 127.549C477.577 124.789 485.414 123.042 492.094 121.976C491.897 119.049 491.86 115.866 492.049 112.372C493.696 81.6474 473.648 72.1344 462.094 71.2647H462.086ZM423.993 87.3189C421.491 86.835 418.688 86.2149 416.814 84.3546C414.698 82.2599 414.365 79.2049 414.955 76.4145C415.695 72.8981 417.622 69.9036 420.207 67.582C419.459 69.1927 418.99 70.9547 418.862 72.8074C418.386 79.9006 422.844 86.0258 429.146 88.0676C427.416 87.8937 425.701 87.6517 423.985 87.3189H423.993ZM413.837 106.451C412.612 107.857 411.569 109.279 410.693 110.701C411.048 106.738 412.597 103.01 415.854 100.81C417.449 99.7358 419.255 99.0325 421.046 98.2915C418.756 100.825 416.36 103.54 413.837 106.451ZM460.439 71.2042C460.325 71.121 460.356 71.1362 460.242 71.053C461.308 69.1549 461.859 66.9392 461.708 64.5723C461.338 58.5756 456.343 53.7586 450.335 53.5922C450.23 53.5922 450.131 53.5922 450.033 53.5922C450.676 53.388 451.333 53.2671 452.036 53.2822C456.751 53.3654 463.242 56.8515 464.429 61.7668C465.373 65.6915 463.25 68.7692 460.439 71.1967V71.2042Z" fill="#333333"/>
<path d="M674.045 24.6296C673.758 23.9566 673.274 23.2231 672.496 22.4442C670.811 20.3268 668.838 18.6102 666.639 17.2717C667.705 14.6931 669.344 12.2959 672.065 11.3204C672.745 11.0784 672.45 9.98947 671.763 10.2315C669.118 11.1767 667.365 13.2336 666.156 15.6308C666.027 14.3906 666.186 13.1202 666.632 11.9329C666.889 11.2523 665.8 10.9574 665.543 11.6304C664.962 13.1882 664.81 14.8216 665.113 16.4172C660.072 13.831 654.072 12.9689 647.906 13.4605C647.317 13.3546 646.712 13.2412 646.092 13.1353C632.339 10.7457 625.062 7.32763 621.238 4.59773C622.395 8.58293 624.435 11.7892 624.435 11.7892C621.254 8.89298 618.14 2.35937 617.339 0.604974C617.188 0.317616 617.135 0.158813 617.135 0.158813C617.135 0.158813 615.881 1.72416 614.573 4.12132C614.475 4.12132 614.377 4.13645 614.271 4.21207C610.326 7.01759 607.296 10.602 608.649 15.7291C609.374 18.4741 611.022 20.7729 613.138 22.5576L607.825 20.3343C607.825 20.3343 610.901 29.3332 617.974 36.8347C617.49 38.4984 617.128 40.094 616.863 41.5383C614.483 50.0834 613.629 57.5094 614.029 63.8539C610.606 74.6223 608.112 87.4551 610.636 98.0722C613.757 96.0985 617.702 94.3895 622.659 92.998L622.871 84.6949C625.878 87.5004 629.528 89.5044 633.631 90.7219C640.213 89.7464 647.997 89.1565 657.201 89.0431C659.362 87.9088 661.304 86.5098 663.05 84.9369C675.073 74.0929 677.71 54.8551 677.71 54.8551C677.921 52.7906 678.035 50.8472 678.08 48.9869C679.236 38.211 677.536 30.2633 674.037 24.6296H674.045ZM609.934 16.0618C608.528 11.8346 610.515 8.68124 613.553 6.17064C611.377 10.9725 609.949 17.7028 615.261 22.7466C612.843 21.1284 610.863 18.8749 609.926 16.0618H609.934Z" fill="#333333"/>
<path d="M234.221 121.242C242.321 120.773 249.561 120.652 256.044 120.789C255.387 117.968 254.858 115.291 254.405 112.743C254.465 112.395 254.518 112.047 254.594 111.699C254.677 111.321 254.412 111.071 254.118 111.011C254.012 110.376 253.913 109.748 253.815 109.128C255.546 113.007 257.344 116.864 258.788 120.864C259.196 120.879 259.596 120.894 259.997 120.91C258.07 115.472 255.417 110.315 253.226 104.976C251.352 90.6235 251.488 80.7929 245.397 72.0512C236.631 59.4679 218.767 62.5835 218.767 62.5835C218.767 62.5835 204.16 60.3527 193.467 80.6719C191.661 82.3355 189.863 84.0219 188.351 85.8897C186.447 88.2415 186.288 91.0168 186.198 93.9282C186.198 93.9282 186.198 93.9357 186.198 93.9433C186.115 96.6959 186.092 99.4409 186.107 102.193C185.502 105.029 184.958 108.069 184.482 111.328C184.127 113.801 183.727 116.168 183.303 118.459C196.188 120.456 212.601 122.49 234.213 121.25L234.221 121.242ZM187.739 95.5464C187.581 96.1211 187.422 96.711 187.271 97.3008C187.278 96.7564 187.271 96.2119 187.286 95.6599C187.286 95.4632 187.286 95.2666 187.293 95.0625C187.316 93.4291 187.293 91.7503 187.596 90.1547C187.989 88.0298 189.198 86.5174 190.701 85.0276C191.11 84.6268 191.518 84.2336 191.926 83.8404C190.407 87.1904 188.994 91.0621 187.747 95.5389L187.739 95.5464Z" fill="#333333"/>
<path d="M281.639 195.819C281.314 195.033 280.974 194.254 280.642 193.475C279.939 191.842 279.236 190.208 278.533 188.575C277.959 187.244 277.407 185.898 276.871 184.552C276.433 184.385 275.987 184.227 275.541 184.075C276.206 185.852 276.909 187.622 277.657 189.376C277.687 189.452 277.717 189.52 277.748 189.596C278.533 191.426 279.327 193.248 280.09 195.078C282.984 202.035 285.448 209.083 285.486 216.789C285.531 226.559 282.546 235.989 279.236 245.116C279.206 235.543 278.753 219.859 276.682 202.096C276.282 198.647 275.813 195.123 275.284 191.554C274.936 189.21 274.551 186.843 274.143 184.461C274.09 184.174 274.045 183.879 273.992 183.591C269.715 182.336 265.249 181.776 260.745 181.965C260.692 181.965 260.632 181.965 260.579 181.965C242.012 182.76 214.505 186.465 191.888 180.014C191.586 179.931 191.283 179.841 190.981 179.75C188.828 179.107 186.704 178.396 184.634 177.617C177.878 175.076 171.576 171.87 165.825 168.452C159.5 182.366 153.145 197.233 149.004 219.972C148.732 221.462 148.475 222.997 148.218 224.555C148.15 224.963 148.082 225.372 148.021 225.795C147.9 224.971 147.817 224.139 147.764 223.292C147.598 220.85 147.651 218.369 147.704 216.025C147.719 215.412 147.734 214.8 147.742 214.21C147.9 205.128 149.329 196.583 152.978 188.227C156.137 181.013 160.293 174.298 164.359 167.575C164.034 167.378 163.717 167.182 163.399 166.978C163.331 167.091 163.263 167.204 163.195 167.318C158.903 174.411 154.528 181.512 151.346 189.195C148.203 196.795 146.941 204.523 146.653 212.637C146.631 213.303 146.608 213.96 146.601 214.634C146.578 216.274 146.525 218.006 146.533 219.761C146.548 222.869 146.729 226.045 147.538 228.971C147.001 232.745 146.517 236.715 146.102 240.912C146.102 240.912 148.762 242.878 153.167 245.585C153.167 245.585 153.689 243.226 154.626 239.422C154.883 238.378 155.17 237.236 155.487 235.996C159.016 222.18 166.127 197.226 173.767 187.032C173.767 187.032 160.898 215.087 159.84 244.178C159.795 245.419 159.772 246.659 159.764 247.899C160.671 248.421 161.608 248.95 162.575 249.487C164.412 250.508 166.354 251.551 168.371 252.572C180.477 258.69 195.53 264.036 209.306 259.34C213.53 257.896 218.216 256.807 223.097 255.99V247.846L225.75 255.574C231.561 254.727 237.584 254.244 243.395 253.994C243.349 238.197 243.44 224.063 243.44 224.063L246.961 253.873C250.113 253.79 253.173 253.767 256.067 253.79C257.926 253.805 259.71 253.843 261.417 253.888C264.183 253.964 266.73 254.07 268.982 254.191L267.69 219.904L267.327 210.217C267.327 210.217 267.72 212.645 268.294 216.6C269.541 225.13 271.649 240.753 272.579 254.402C276.652 254.667 279.1 254.924 279.1 254.924C279.1 254.924 279.198 252.557 279.221 248.398C282.35 239.929 285.387 231.3 286.324 222.271C287.292 212.955 285.191 204.379 281.639 195.827V195.819Z" fill="#333333"/>
<path d="M207.447 575.683C197.896 575.57 188.503 575.245 179.767 574.7L183.742 597.144V614.809H225.908L206.699 597.144L207.455 575.676L207.447 575.683Z" fill="#333333"/>
<path d="M47.5772 235.543C43.8442 235.868 39.1514 236.745 38.033 239.051C36.4839 242.25 33.5141 252.943 43.5117 257.064C45.2044 257.76 47.2674 258.274 49.7762 258.524C45.9525 251.529 45.2422 243.105 47.5772 235.543Z" fill="#333333"/>
<path d="M303.463 108.092C305.148 111.412 306.848 114.202 308.571 116.501C312.508 116.282 317.345 116.403 323.314 117.06C329.103 117.703 334.166 118.391 338.571 119.17C340.574 117.484 342.509 115.586 344.36 113.597C348.902 108.697 352.907 103.26 356.065 99.1686C327.554 106.746 302.329 96.7337 298.574 95.123C299.413 98.5108 300.13 100.726 300.13 100.726C301.226 103.441 302.345 105.884 303.463 108.092Z" fill="#333333"/>
<path d="M689.445 447.295C689.415 445.805 689.385 444.323 689.355 442.856C692.468 422.885 694.735 379.902 694.236 338.583C683.914 343.665 658.032 345.162 632.06 344.292C636.186 396.554 633.412 440.013 638.49 472.522L646.984 596.683L625.893 614.824L648.193 614.295H679.198C696.277 500.358 689.445 447.295 689.445 447.295Z" fill="#333333"/>
<path d="M593.279 342.561C594.457 349.359 594.48 355.522 591.329 357.254C591.004 357.435 590.498 357.624 589.855 357.821C586.674 425.894 579.148 529.441 575.195 581.899V581.922C573.752 601.039 572.792 613.357 572.687 614.688L593.09 614.288L605.725 481.029L625.138 343.997C614.694 343.483 604.47 342.598 595.47 341.419C594.775 341.857 594.042 342.235 593.279 342.553V342.561Z" fill="#333333"/>
<path d="M183.311 118.452C183.734 116.168 184.135 113.794 184.49 111.321C184.966 108.062 185.51 105.029 186.115 102.186C186.1 99.4333 186.122 96.6883 186.206 93.9357C178.566 86.2829 160.981 72.7091 142.407 86.4493C140.064 80.0291 134.986 71.8243 124.036 67.7106C123.991 67.6425 123.938 67.5744 123.855 67.5215C117.689 63.6724 110.442 62.3869 103.255 62.4474C97.0664 62.5003 90.7263 63.4909 85.1343 66.2511C79.8219 68.8675 75.5902 73.2384 74.0411 79.0536C73.0511 82.7666 73.1116 86.5552 73.565 90.3362C73.036 100.462 75.3937 111.759 72.8017 120.448C72.1443 121.386 71.3886 122.271 70.4818 123.072C70.3307 123.208 70.2929 123.36 70.308 123.511C60.4692 132.782 21.5898 172.679 64.8747 187.077C64.8747 187.077 52.4968 197.483 61.7009 205.975C64.0435 208.138 67.7916 210.172 73.497 211.881C75.2955 212.418 77.094 212.705 78.8925 212.758C81.2199 212.834 83.5399 212.509 85.822 211.828C86.6759 211.578 87.5223 211.276 88.3686 210.928C91.0059 209.839 93.5979 208.281 96.1067 206.323C93.9077 225.644 98.7818 245.638 109.595 261.843C110.721 263.53 111.915 265.163 113.162 266.751C113.925 266.471 114.674 266.192 115.407 265.904C101.948 248.965 95.6533 226.597 98.5248 205.113C98.2906 205.219 98.0563 205.325 97.8145 205.431C97.4896 205.574 97.1646 205.718 96.8397 205.862C96.7339 205.907 96.6205 205.96 96.5148 206.005C97.0211 205.597 97.5198 205.173 98.0185 204.742C102.409 200.901 106.527 195.827 110.215 189.853C111.84 188.688 113.442 187.493 114.961 186.215C117.228 184.302 118.86 182.086 120.077 179.659C121.769 176.279 122.638 172.483 123.243 168.52C123.832 164.633 124.074 160.709 123.674 156.859C124.701 152.715 125.548 148.466 126.182 144.155H130.603L135.175 132.903L133.966 132.079C134.397 132.298 134.835 132.51 135.273 132.714C146.117 110.648 157.8 114.474 183.334 118.437L183.311 118.452ZM81.3711 69.9338C86.3358 65.9864 92.88 64.2925 99.0992 63.7707C105.621 63.2263 112.399 63.7027 118.49 66.1074C113.684 65.0941 108.001 64.784 101.26 65.4722C83.4341 67.3098 76.8144 74.3425 74.5474 83.2732C75.0385 78.1311 77.0184 73.3896 81.3711 69.9338ZM121.958 169.412C121.422 172.581 120.757 175.81 119.412 178.744C119.291 179.009 119.155 179.258 119.019 179.515C117.515 182.389 115.278 184.605 112.701 186.586C112.369 186.843 112.036 187.093 111.704 187.35C113.215 184.726 114.636 181.943 115.973 179.039C118.633 173.246 120.923 166.962 122.744 160.361C122.774 163.386 122.465 166.433 121.951 169.412H121.958ZM127.611 101.982C129.092 88.8465 133.973 88.1054 138.092 90.1471C133.55 94.4575 130.112 98.3898 127.611 101.982Z" fill="#333333"/>
<path d="M187.301 95.07C187.301 95.2666 187.301 95.4708 187.293 95.6674C187.278 96.2119 187.286 96.7564 187.278 97.3084C187.429 96.711 187.588 96.1287 187.747 95.554C187.603 95.4028 187.452 95.244 187.301 95.0776V95.07Z" fill="#333333"/>
<path d="M476.58 603.149C477.23 592.38 478.28 574.836 479.52 553.421C473.973 489.128 472.031 425.562 471.51 375.493H445.998L457.855 614.817H486.003C485.739 612.715 485.474 610.605 485.217 608.495L476.58 603.149Z" fill="#333333"/>
<path d="M427.038 594.452L438.562 375.493H405.592C403.121 375.335 400.779 375.002 398.557 374.495C402.297 426.25 403.892 474.828 399.486 498.203C401.232 536.406 403.839 576.235 407.701 614.817H450.759L427.741 601.893L427.031 594.452H427.038Z" fill="#333333"/>
<path d="M402.169 263.318C401.285 261.488 398.149 260.558 395.02 260.089C397.227 267.447 396.569 275.584 392.965 282.412C407.345 279.607 403.877 266.857 402.169 263.318Z" fill="#333333"/>
<path d="M378.705 517.357C368.466 519.437 354.562 520.647 339.41 521.04C341.972 547.515 345.131 574.315 349.03 599.647V614.817H385.544L378.728 597.144L378.698 517.35L378.705 517.357Z" fill="#333333"/>
<path d="M294.826 567.932L297.41 549.851L301.612 520.45C286.355 519.596 271.778 518.008 260.155 515.747C259.657 532.746 259.589 552.135 260.193 574.057C253.785 574.587 246.871 574.988 239.707 575.267L241.642 597.144L234.772 614.809H259.732H328.65L291.07 594.15L294.818 567.932H294.826Z" fill="#333333"/>
<path d="M57.3785 258.584C54.0384 246.742 55.0963 234.219 56.4792 222.112C55.58 222.861 54.7412 223.655 53.9628 224.487C52.6706 236.495 51.9603 248.859 55.5875 260.482C56.4188 263.152 57.4843 265.768 58.7614 268.271C59.7286 268.906 60.7488 269.496 61.8218 270.025C61.8823 270.056 61.9352 270.078 61.9956 270.109C62.177 270.199 62.3659 270.283 62.5548 270.373C60.2727 266.736 58.5422 262.721 57.3785 258.584Z" fill="#333333"/>
<path d="M159.84 244.178C158.276 241.517 156.825 238.787 155.487 235.996C155.17 237.236 154.883 238.378 154.626 239.422C156.379 242.855 158.306 246.197 160.422 249.419C161.125 249.419 161.842 249.442 162.575 249.487C161.608 248.95 160.671 248.421 159.764 247.899C159.764 246.659 159.795 245.419 159.84 244.178Z" fill="#333333"/>
<path d="M147.749 223.292C147.9 223.716 148.051 224.131 148.21 224.555C148.46 222.99 148.724 221.462 148.996 219.972C148.55 218.664 148.112 217.348 147.696 216.025C147.636 218.369 147.583 220.85 147.757 223.292H147.749Z" fill="#333333"/>
<path d="M139.739 185.573C138.908 181.981 138.069 178.207 137.759 174.441C137.087 175.069 136.399 175.712 135.711 176.377C135.757 176.763 135.809 177.148 135.862 177.534C136.799 184.204 138.605 190.806 140.207 197.339C142.051 204.878 144.069 212.41 146.532 219.776C146.532 218.021 146.57 216.297 146.6 214.649C146.608 213.983 146.631 213.318 146.653 212.652C146.321 211.556 146.003 210.452 145.686 209.348C143.457 201.491 141.575 193.535 139.739 185.573Z" fill="#333333"/>
<path d="M276.848 271.311C285.879 245.638 292.846 218.294 289.982 191.123C289.12 190.601 288.304 190.125 287.556 189.694C290.889 217.106 283.808 244.776 274.687 270.683C275.405 270.895 276.13 271.107 276.848 271.311Z" fill="#333333"/>
<path d="M311.216 282.957C311.383 283.04 311.556 283.123 311.723 283.206C312.002 283.342 312.274 283.478 312.546 283.614C312.788 283.735 313.037 283.856 313.287 283.977C326.798 267.749 335.813 248.02 339.418 227.224C338.7 226.869 337.982 226.506 337.279 226.143C333.818 246.931 324.856 266.751 311.216 282.941V282.957Z" fill="#333333"/>
<path d="M376.174 267.099C378.962 259.015 380.013 250.856 380.164 242.621C379.499 242.303 378.804 242.008 378.101 241.728C378.101 242.507 378.101 243.294 378.071 244.073C377.859 251.748 376.499 259.242 373.997 266.502C370.159 277.633 364.128 287.819 357.758 297.695C358.627 297.778 359.473 297.839 360.312 297.884C366.554 288.129 372.395 278.079 376.174 267.099Z" fill="#333333"/>
<path d="M556.016 91.289C583.606 85.9653 585.404 73.2913 585.412 73.2535C585.412 72.4973 585.397 71.8167 585.351 71.2345C585.306 70.4178 585.246 69.6086 585.17 68.807C585.064 67.8769 584.943 66.9619 584.822 66.062C584.717 65.3058 584.641 64.5496 584.626 63.7934C584.603 63.0296 584.641 62.2659 584.754 61.5021C584.807 61.1543 584.875 60.8064 584.958 60.4585C598.704 55.9818 602.233 39.4209 596.135 32.3731C594.185 30.1272 591.782 28.5921 589.304 27.5561C590.037 10.5793 574.56 -2.06444 563.233 0.294919C551.376 2.76015 544.507 14.4057 542.225 18.9883C531.82 9.20301 516.895 15.8879 515.27 24.2742C515.006 25.6505 514.961 27.0041 515.074 28.3123C500.663 26.4596 492.578 40.956 496.341 48.6996C498.404 52.9494 502.326 55.4978 505.764 56.98C506.867 61.4567 507.51 66.0771 508.212 70.6446C508.243 70.5917 508.258 70.569 508.258 70.569C508.258 70.569 528.389 96.6354 556.024 91.3041L556.016 91.289Z" fill="#333333"/>
<path d="M536.422 108.946C530.792 107.124 526.16 105.12 522.344 103.033C524.626 106.111 526.885 108.651 529.122 110.708C530.49 111.964 531.842 113.037 533.187 113.952C534.434 113.952 535.794 114.081 537.313 114.368C545.044 115.866 551.868 115.185 557.157 115.382C558.223 114.883 559.281 114.331 560.331 113.726C562.145 112.682 563.943 111.495 565.727 110.217C557.86 112.622 548.15 112.75 536.429 108.939L536.422 108.946Z" fill="#333333"/>
</g>
<defs>
<clipPath id="clip0_35_762">
<rect width="767" height="635" fill="white"/>
</clipPath>
</defs>
</svg>
